# xmcd
#
# Track frame offsets:
#	150
#	16777
#	33544
#	50195
#	63703
#	82229
#	103080
#	116731
#	133832
#	149208
#	167359
#	183985
#	200711
#	217362
#	235888
#	256739
#	270390
#	287491
#	302867
#
# Disc length: 4278 seconds
#
# Revision: 1
# Processed by: cddbd v1.5.1PL2 Copyright (c) Steve Scherf et al.
# Submitted via: EasyCDDAExtractor 7.0.6.1
#
DISCID=2f10b413
DTITLE=Корнелис - Альбом 2
DYEAR=2004
DGENRE=Христианский
TTITLE0=Прошу Тебя
TTITLE1=Его имя - Иисус
TTITLE2=Божья любовь
TTITLE3=Дорога любви
TTITLE4=Веришь ли ты?
TTITLE5=Всегда рядом
TTITLE6=Любит Бог
TTITLE7=Верю я
TTITLE8=Прикоснись ко мне
TTITLE9=Спасибо Тебе
TTITLE10=Прошу Тебя
TTITLE11=Его имя - Иисус
TTITLE12=Божья любовь
TTITLE13=Веришь ли ты?
TTITLE14=Всегда рядом
TTITLE15=Любит Бог
TTITLE16=Верю я
TTITLE17=Прикоснись ко мне
TTITLE18=Спасибо Тебе
EXTD=
EXTT0=
EXTT1=
EXTT2=
EXTT3=
EXTT4=
EXTT5=
EXTT6=
EXTT7=
EXTT8=
EXTT9=
EXTT10=
EXTT11=
EXTT12=
EXTT13=
EXTT14=
EXTT15=
EXTT16=
EXTT17=
EXTT18=
PLAYORDER=
